<svg xmlns="http://www.w3.org/2000/svg" viewBox="0 0 111.43 111.43"><defs><style>.cls-1{fill:#ff8156;fill-rule:evenodd;}</style></defs><title>Asset 1</title><g id="Layer_2" data-name="Layer 2"><g id="OBJECTS"><path class="cls-1" d="M42.23,58.94V69.21H55.7a13.49,13.49,0,0,0,0-27h0A13.63,13.63,0,0,0,42.23,55.72v3.22ZM55.72,0h0a55.86,55.86,0,0,1,55.7,55.7h0A55.88,55.88,0,0,1,55.7,111.43H42.23V86.1H55.7a30.38,30.38,0,1,0,0-60.76h0A30.53,30.53,0,0,0,25.34,55.72v55.71H0V55.72A55.88,55.88,0,0,1,55.72,0Z"/></g></g></svg>